<svg width="136" height="32" viewBox="0 0 136 32" fill="none" xmlns="http://www.w3.org/2000/svg">
<path d="M15.9971 0C24.8258 0.000126054 31.9932 7.16946 31.9932 16C31.9932 24.8306 24.8258 31.9999 15.9971 32C7.16821 32 1.2178e-05 24.8307 0 16C0 7.16938 7.1682 0 15.9971 0ZM15.9971 4.32812C14.7071 4.32812 12.9006 4.68416 12.3047 4.92578C11.9598 5.0656 11.9805 5.58976 12.4219 5.77734L13.8877 6.36816L9.75977 8.04297C9.74338 8.03656 8.74592 7.64491 8.2832 7.24414C5.85821 9.38305 4.32715 12.5143 4.32715 16C4.32716 19.4839 5.85663 22.613 8.2793 24.752C8.7394 24.3517 9.73904 23.9631 9.75977 23.9551L19.4619 20.0312C19.4619 20.0312 19.5373 20.0015 19.5742 19.9854C19.9972 19.7997 19.9995 19.2451 19.5742 19.0645L18.1084 18.4736L22.2363 16.7988C22.2481 16.8034 23.5348 17.308 23.8672 17.7588C24.2007 18.2117 24.2393 18.9297 24.2393 19.5166C24.2393 20.1037 24.201 20.8281 23.8672 21.2812C23.5357 21.731 22.2551 22.2281 22.2363 22.2354L12.5342 26.1592C12.5342 26.1592 12.4587 26.188 12.4219 26.2041C12.0224 26.3793 11.9162 26.9108 12.3545 27.0908C12.9502 27.3354 14.7257 27.6719 15.9971 27.6719C17.204 27.6718 18.8544 27.4169 19.5742 27.1016C19.9973 26.9159 19.9994 26.3613 19.5742 26.1807L18.1084 25.5898L22.2363 23.915C22.2511 23.9208 23.2827 24.3255 23.7354 24.7334C26.1461 22.5945 27.667 19.4735 27.667 16C27.667 12.5052 26.1274 9.367 23.6914 7.22754C23.2213 7.61991 22.2578 7.99461 22.2363 8.00293L12.5342 11.9268C12.5342 11.9268 12.4587 11.9565 12.4219 11.9727C11.9988 12.1583 11.9966 12.7128 12.4219 12.8936L13.8877 13.4844L9.75977 15.1592C9.74518 15.1535 8.4624 14.6504 8.12988 14.2002C7.79599 13.7473 7.75684 13.0285 7.75684 12.4414C7.75684 11.8543 7.79602 11.1299 8.12988 10.6768C8.46208 10.2268 9.74277 9.72924 9.75977 9.72266L19.4619 5.79883C19.4619 5.79883 19.5373 5.77005 19.5742 5.75391C20.0662 5.53822 20.0776 5.07664 19.7432 4.94336C19.1466 4.70572 17.3068 4.32817 15.9971 4.32812ZM103.735 9.12109C106.646 9.12123 108.341 10.6963 109.278 12.3711L106.846 13.5674C106.287 12.4908 105.091 11.6339 103.735 11.6338C101.303 11.6338 99.5479 13.4878 99.5479 16C99.5479 18.5123 101.303 20.3672 103.735 20.3672C105.091 20.367 106.287 19.5092 106.846 18.4326L109.278 19.6094C108.341 21.2642 106.646 22.8788 103.735 22.8789C99.7276 22.8789 96.6367 20.0875 96.6367 16C96.6368 11.8927 99.7277 9.12109 103.735 9.12109ZM113.844 9.34082V17.2363C113.844 19.0907 114.921 20.3672 116.975 20.3672C119.028 20.3671 120.085 19.0906 120.085 17.2363V9.34082H122.977V17.3164C122.976 20.6062 121.022 22.8788 116.975 22.8789C112.927 22.8789 110.973 20.6062 110.973 17.3164V9.34082H113.844ZM130.174 9.1416C132.287 9.1416 134.042 9.77888 135.358 10.9951L133.783 13.1094C132.707 12.1125 131.271 11.6534 129.915 11.6533C128.719 11.6533 128.041 12.1722 128.041 12.9697C128.042 15.0629 135.677 13.6477 135.677 18.6123C135.677 21.0448 133.923 22.8789 130.354 22.8789C127.781 22.8789 125.947 22.0218 124.69 20.7656L126.246 18.5527C127.183 19.5296 128.639 20.367 130.473 20.3672C132.048 20.3672 132.786 19.6691 132.786 18.8916C132.786 16.5787 125.13 18.1932 125.13 13.1885C125.13 10.9754 127.044 9.14168 130.174 9.1416ZM41.3857 9.34082V22.6396H38.5547V9.34082H41.3857ZM47.9854 9.34082L51.2158 17.6553L54.4463 9.34082H58.4336V22.6396H55.582V13.0488L51.834 22.6396H50.5977L46.8496 13.0488V22.6396H44.0176V9.34082H47.9854ZM67.2861 9.34082C70.1773 9.34082 71.7529 11.2951 71.7529 13.6279C71.7527 15.9406 70.1571 17.8945 67.2861 17.8945H63.8965V22.6396H61.0654V9.34082H67.2861ZM76.3584 9.34082V22.6396H73.5273V9.34082H76.3584ZM85.2119 9.34082C87.9833 9.34091 89.6982 11.1556 89.6982 13.6279C89.698 15.9605 88.2021 17.2363 86.7666 17.5752L89.7773 22.6396H86.5078L83.8955 17.9141H81.8223V22.6396H78.9912V9.34082H85.2119ZM94.6426 9.34082V22.6396H91.8115V9.34082H94.6426ZM22.2363 9.68359C22.26 9.69286 23.5364 10.1939 23.8672 10.6426C24.2007 11.0954 24.2392 11.8135 24.2393 12.4004C24.2393 12.9874 24.2009 13.7119 23.8672 14.165C23.5362 14.6142 22.2583 15.1106 22.2363 15.1191L12.5342 19.043C12.5342 19.043 12.4587 19.0727 12.4219 19.0889C11.9989 19.2746 11.9966 19.8291 12.4219 20.0098L13.8877 20.6006L9.75977 22.2744C9.73462 22.2646 8.46044 21.7638 8.12988 21.3154C7.79601 20.8626 7.75684 20.1447 7.75684 19.5576C7.75684 18.9705 7.79599 18.2461 8.12988 17.793C8.46145 17.3436 9.73928 16.8468 9.75977 16.8389L19.4619 12.915C19.4619 12.915 19.5373 12.8863 19.5742 12.8701C19.9974 12.6846 19.9993 12.13 19.5742 11.9492L18.1084 11.3574L22.2363 9.68359ZM81.8223 11.833V15.4219H84.8125C85.9291 15.4219 86.7871 14.7439 86.7871 13.6074C86.7871 12.5108 85.929 11.833 84.8125 11.833H81.8223ZM63.8965 11.833V15.4023H66.8877C68.0041 15.4023 68.8611 14.7243 68.8613 13.6279C68.8613 12.5113 68.0043 11.833 66.8877 11.833H63.8965Z" fill="white"/>
</svg>
